<svg width="28" height="28" viewBox="0 0 28 28" fill="none" xmlns="http://www.w3.org/2000/svg">
<path d="M8.96 19.2H24.2V20H8.4C7.41228 20 6.6 19.1877 6.6 18.2C6.6 17.9652 6.68291 17.577 6.79805 17.2108L8.70378 13.9439L8.96945 13.4884L8.74374 13.0119L3.70374 2.37191L3.43283 1.8H2.8H1V1H3.97341L4.96808 3.21036L5.23341 3.8H5.88H26.6C26.7928 3.8 26.8757 3.85989 26.9079 3.89211C26.9401 3.92433 27 4.00725 27 4.2L27 4.20579L26.9134 4.2924L26.8452 4.4155L21.8052 13.5154L21.795 13.5339L21.7856 13.5527C21.5397 14.0445 21.0519 14.3999 20.3 14.3999H9.94H9.33792L9.05621 14.9321L7.79621 17.3121L7.68 17.5316V17.7799V17.92C7.68 18.3152 7.86755 18.6268 8.06039 18.8196C8.25324 19.0125 8.56477 19.2 8.96 19.2ZM6.6 25.2C6.6 24.2123 7.41229 23.4 8.4 23.4C9.38771 23.4 10.2 24.2123 10.2 25.2C10.2 26.1877 9.38772 27 8.4 27C7.41228 27 6.6 26.1877 6.6 25.2ZM20.6 25.2C20.6 24.2123 21.4123 23.4 22.4 23.4C23.3877 23.4 24.2 24.2123 24.2 25.2C24.2 26.1877 23.3877 27 22.4 27C21.4123 27 20.6 26.1877 20.6 25.2Z" stroke="#87D585" stroke-width="2"/>
</svg>
